Coordinates
version=1
nRows=33
nColumns=38
inDegrees=no

Units are S.I. units (second, meters, Newtons, ...)
If the header above contains a line with 'inDegrees', this indicates whether rotational values are in degrees (yes) or radians (no).

endheader
time	pelvis_tilt	pelvis_list	pelvis_rotation	pelvis_tx	pelvis_ty	pelvis_tz	hip_flexion_r	hip_adduction_r	hip_rotation_r	knee_angle_r	ankle_angle_r	subtalar_angle_r	mtp_angle_r	hip_flexion_l	hip_adduction_l	hip_rotation_l	knee_angle_l	ankle_angle_l	subtalar_angle_l	mtp_angle_l	lumbar_extension	lumbar_bending	lumbar_rotation	arm_flex_r	arm_add_r	arm_rot_r	elbow_flex_r	pro_sup_r	wrist_flex_r	wrist_dev_r	arm_flex_l	arm_add_l	arm_rot_l	elbow_flex_l	pro_sup_l	wrist_flex_l	wrist_dev_l
8.2425	0.0151609	0.0647223	3.00135	-0.222351	0.909545	0.0116016	0.281888	0.0735336	-0.0875438	0.787268	0.465209	0	0	0.507967	-0.11115	-0.109722	1.49965	-0.0130803	0	0	-0.356393	0.131681	0.137642	0.575329	-0.531083	0.835108	1.97258	1.29955	0	0	-0.0720534	-0.51459	0.601238	1.70225	1.36784	0	0
8.25249	0.0192158	0.057534	3.00348	-0.221888	0.913463	0.0110139	0.246676	0.0678659	-0.0781008	0.754169	0.462455	0	0	0.53522	-0.103636	-0.103668	1.47317	0.00277584	0	0	-0.3469	0.120666	0.145796	0.611785	-0.518714	0.847911	1.98643	1.29909	0	0	-0.120855	-0.522309	0.574098	1.71338	1.37367	0	0
8.26248	0.0241759	0.0494396	3.00605	-0.221823	0.918117	0.0104604	0.210204	0.0619326	-0.0676395	0.715879	0.452369	0	0	0.558797	-0.0956341	-0.0999649	1.43689	0.0169421	0	0	-0.33513	0.10826	0.155082	0.640984	-0.508072	0.857947	2.00081	1.29728	0	0	-0.167531	-0.530004	0.548663	1.72591	1.37765	0	0
8.27247	0.029878	0.0406715	3.00902	-0.222148	0.923405	0.00994917	0.172944	0.055735	-0.0566861	0.673558	0.434626	0	0	0.578293	-0.0873032	-0.0985243	1.39117	0.0295269	0	0	-0.321475	0.0947662	0.165268	0.663592	-0.499267	0.866174	2.01524	1.29423	0	0	-0.212147	-0.537564	0.524572	1.73962	1.37987	0	0
8.28246	0.0361735	0.031492	3.01229	-0.222843	0.929214	0.00948967	0.13545	0.0492725	-0.0458511	0.628493	0.409127	0	0	0.593433	-0.0787885	-0.0991213	1.33649	0.0406619	0	0	-0.306323	0.0805214	0.176111	0.680387	-0.492319	0.873506	2.02923	1.29017	0	0	-0.254776	-0.544857	0.501474	1.75431	1.38055	0	0
8.29245	0.0429513	0.0221968	3.01575	-0.223879	0.935412	0.00909131	0.0983481	0.0425788	-0.0357709	0.582037	0.376032	0	0	0.6041	-0.0702406	-0.101401	1.27351	0.0504882	0	0	-0.290004	0.0659126	0.187423	0.692158	-0.487186	0.880719	2.04232	1.28548	0	0	-0.295426	-0.551742	0.479122	1.76984	1.37994	0	0
8.30245	0.0501476	0.0131117	3.01926	-0.225218	0.941859	0.0087628	0.0623023	0.0357477	-0.0270341	0.535534	0.335763	0	0	0.610353	-0.061829	-0.104891	1.20306	0.0591474	0	0	-0.272773	0.0513751	0.199088	0.699641	-0.483788	0.888405	2.05406	1.28061	0	0	-0.334005	-0.558069	0.457422	1.78606	1.3783	0	0
8.31244	0.057741	0.00458256	3.02266	-0.226816	0.948407	0.00851229	0.0279845	0.0289445	-0.0201075	0.490271	0.288999	0	0	0.612429	-0.0537456	-0.109026	1.12615	0.0667761	0	0	-0.254809	0.0373746	0.211071	0.703468	-0.48203	0.896943	2.06408	1.27603	0	0	-0.370301	-0.563682	0.436447	1.8028	1.37592	0	0
8.32243	0.0657352	-0.00304327	3.0258	-0.228621	0.954908	0.00834838	-0.00396004	0.0223973	-0.0152976	0.447462	0.236703	0	0	0.610723	-0.046197	-0.113176	1.04397	0.0735043	0	0	-0.236248	0.0243789	0.223403	0.704146	-0.481813	0.906497	2.0721	1.27216	0	0	-0.403971	-0.568443	0.416444	1.81983	1.37313	0	0
8.33242	0.0741312	-0.00944303	3.02851	-0.230579	0.961214	0.00828058	-0.0329535	0.0163673	-0.0127408	0.408238	0.180103	0	0	0.605754	-0.0393857	-0.116676	0.957917	0.0794687	0	0	-0.217214	0.0128156	0.236154	0.702044	-0.483048	0.917027	2.07794	1.26937	0	0	-0.434551	-0.572239	0.397812	1.83692	1.37027	0	0
8.34241	0.0829145	-0.0143471	3.03072	-0.232637	0.967185	0.00832034	-0.0585092	0.0111092	-0.0124397	0.373645	0.120702	0	0	0.598137	-0.0334846	-0.118869	0.869545	0.0848179	0	0	-0.19783	0.00303333	0.249401	0.697379	-0.485658	0.928306	2.08151	1.26788	0	0	-0.461478	-0.575014	0.381079	1.8538	1.36769	0	0
8.3524	0.0920475	-0.0175663	3.0324	-0.234743	0.972685	0.00848198	-0.0802481	0.00682986	-0.0143046	0.344634	0.0602139	0	0	0.588563	-0.0286119	-0.119143	0.780582	0.0897007	0	0	-0.178228	-0.00473175	0.263207	0.690213	-0.489579	0.939946	2.08284	1.2678	0	0	-0.484114	-0.576778	0.366871	1.87017	1.36569	0	0
8.36239	0.10147	-0.0190162	3.03363	-0.236846	0.977592	0.00878279	-0.0978985	0.00365325	-0.0181869	0.322049	0.00044923	0	0	0.577767	-0.0248135	-0.117001	0.69288	0.0942376	0	0	-0.158548	-0.0103829	0.277601	0.680474	-0.49476	0.95143	2.08203	1.26911	0	0	-0.50178	-0.577609	0.35587	1.88574	1.36449	0	0
8.37238	0.111106	-0.0187342	3.03453	-0.238899	0.981792	0.00924185	-0.111289	0.00159446	-0.0239072	0.306607	-0.0568249	0	0	0.56651	-0.0220477	-0.112121	0.608357	0.0984907	0	0	-0.138947	-0.0139814	0.292567	0.667969	-0.501145	0.962135	2.07923	1.27171	0	0	-0.513791	-0.577647	0.348775	1.90023	1.3642	0	0
8.38237	0.120852	-0.016884	3.03535	-0.240856	0.98519	0.00987785	-0.120357	0.000548176	-0.0312822	0.298875	-0.110014	0	0	0.55552	-0.0201762	-0.104418	0.52892	0.102429	0	0	-0.119608	-0.0157499	0.308019	0.652441	-0.50865	0.971376	2.07461	1.27542	0	0	-0.519508	-0.577059	0.346231	1.91333	1.3648	0	0
8.39236	0.130552	-0.0137422	3.03637	-0.242676	0.987708	0.0107065	-0.125175	0.000295251	-0.0401423	0.299243	-0.157811	0	0	0.545429	-0.0189684	-0.0940789	0.456392	0.105911	0	0	-0.100784	-0.0160569	0.323778	0.633628	-0.517135	0.978457	2.06835	1.28	0	0	-0.518397	-0.576013	0.348762	1.92476	1.36611	0	0
8.40235	0.139976	-0.00967153	3.03793	-0.244318	0.989291	0.0117381	-0.125967	0.000523372	-0.0503355	0.307912	-0.199272	0	0	0.536721	-0.0181185	-0.0815808	0.392449	0.108704	0	0	-0.0828229	-0.0153828	0.339559	0.611341	-0.526384	0.982736	2.06056	1.28514	0	0	-0.510084	-0.574636	0.356717	1.93428	1.36782	0	0
8.41235	0.148818	-0.00508603	3.04038	-0.245747	0.989903	0.012976	-0.123108	0.000859546	-0.0617146	0.324893	-0.233855	0	0	0.529709	-0.0172739	-0.0676703	0.33857	0.110541	0	0	-0.0661808	-0.0142788	0.354989	0.585496	-0.536115	0.983656	2.05131	1.29056	0	0	-0.494376	-0.572992	0.370247	1.94171	1.36953	0	0
8.42234	0.156695	-0.00042011	3.04408	-0.246932	0.989532	0.0144157	-0.117111	0.000903824	-0.0741284	0.350016	-0.261402	0	0	0.524518	-0.0160559	-0.0532818	0.295994	0.111211	0	0	-0.0514218	-0.0133222	0.369593	0.556186	-0.545979	0.980828	2.04062	1.29604	0	0	-0.471303	-0.571059	0.389255	1.94691	1.3708	0	0
8.43233	0.163181	0.00389812	3.04935	-0.247846	0.988188	0.0160452	-0.108581	0.000263041	-0.0874067	0.38297	-0.282054	0	0	0.521102	-0.0140845	-0.0394117	0.265666	0.110639	0	0	-0.0391831	-0.0130805	0.382844	0.523648	-0.555606	0.974003	2.02846	1.30147	0	0	-0.441079	-0.568754	0.413439	1.94987	1.37121	0	0
8.44232	0.167836	0.00746583	3.05647	-0.248462	0.985901	0.0178462	-0.0981639	-0.0014198	-0.101356	0.423332	-0.296123	0	0	0.519253	-0.0109969	-0.0269583	0.248186	0.108961	0	0	-0.0301402	-0.0140716	0.39413	0.488329	-0.564596	0.963165	2.01477	1.30684	0	0	-0.404142	-0.565923	0.442232	1.95063	1.37039	0	0
8.45231	0.170252	0.0099211	3.06569	-0.248762	0.98272	0.0197945	-0.0864824	-0.00443974	-0.115754	0.470611	-0.303977	0	0	0.518639	-0.00647174	-0.0165723	0.243755	0.106582	0	0	-0.0249442	-0.0167314	0.40277	0.450871	-0.572551	0.948541	1.99944	1.31216	0	0	-0.361146	-0.562368	0.474827	1.94936	1.3681	0	0
8.4623	0.170108	0.0109588	3.07716	-0.24873	0.978713	0.0218604	-0.0740639	-0.00900497	-0.130345	0.524246	-0.305989	0	0	0.51884	-0.000257412	-0.00855634	0.252141	0.104238	0	0	-0.0241523	-0.0213822	0.408041	0.412092	-0.579082	0.93061	1.98238	1.31745	0	0	-0.312939	-0.557886	0.5102	1.94631	1.3642	0	0
8.47229	0.167212	0.0103462	3.09097	-0.248352	0.973967	0.0240082	-0.0612848	-0.0152174	-0.144836	0.58361	-0.302539	0	0	0.519388	0.00780429	-0.00283231	0.272645	0.103052	0	0	-0.0281632	-0.0282073	0.409215	0.372932	-0.58384	0.91008	1.96345	1.32278	0	0	-0.260534	-0.552299	0.547153	1.94183	1.35876	0	0
8.48228	0.161526	0.00793056	3.10707	-0.247623	0.968582	0.0261976	-0.0483383	-0.023068	-0.158897	0.647983	-0.294096	0	0	0.519805	0.0177663	0.00100292	0.304117	0.10449	0	0	-0.0371752	-0.0372418	0.405597	0.334409	-0.586529	0.887863	1.94255	1.32816	0	0	-0.205075	-0.54548	0.584355	1.93634	1.35203	0	0
8.49227	0.153168	0.00365208	3.12531	-0.246542	0.962679	0.0283833	-0.0352331	-0.0324334	-0.172158	0.716543	-0.281285	0	0	0.519652	0.0295559	0.00351458	0.345058	0.110182	0	0	-0.0511729	-0.0483671	0.396568	0.297571	-0.586922	0.865029	1.91963	1.33355	0	0	-0.147797	-0.53737	0.620394	1.93035	1.34443	0	0
8.50226	0.142403	-0.00243305	3.14541	-0.245113	0.956392	0.0305177	-0.0217971	-0.043068	-0.184216	0.788363	-0.264903	0	0	0.518524	0.0429526	0.00531104	0.393639	0.121497	0	0	-0.0699112	-0.0613142	0.381812	0.263181	-0.584955	0.842471	1.89479	1.33892	0	0	-0.0897363	-0.528021	0.654116	1.92435	1.33637	0	0
8.51225	0.129639	-0.0101311	3.16693	-0.243348	0.949873	0.0325521	-0.00770099	-0.0546029	-0.194661	0.862406	-0.245845	0	0	0.516017	0.057567	0.00692188	0.4477	0.139089	0	0	-0.092908	-0.0756589	0.36136	0.23166	-0.580728	0.820847	1.86834	1.34429	0	0	-0.0317036	-0.517576	0.684665	1.9188	1.32826	0	0
8.52225	0.115409	-0.0191028	3.18933	-0.241271	0.94328	0.0344392	0.00751594	-0.0665675	-0.203104	0.937537	-0.225011	0	0	0.511743	0.0728345	0.00868421	0.504796	0.162678	0	0	-0.119429	-0.0908335	0.335627	0.203054	-0.574505	0.800541	1.84077	1.34965	0	0	0.0257192	-0.506238	0.711518	1.91408	1.32051	0	0
8.53224	0.100362	-0.0288806	3.21191	-0.238919	0.936772	0.036137	0.0244209	-0.0784358	-0.209207	1.01254	-0.203217	0	0	0.505386	0.0880491	0.0107008	0.562386	0.191258	0	0	-0.148478	-0.106164	0.305409	0.17706	-0.566697	0.781689	1.81277	1.35495	0	0	0.0821366	-0.494234	0.734457	1.91046	1.31354	0	0
8.54223	0.0852378	-0.0389056	3.23387	-0.236344	0.930502	0.0376147	0.0436559	-0.089679	-0.212676	1.08614	-0.181127	0	0	0.496794	0.10243	0.0128795	0.618091	0.2235	0	0	-0.178823	-0.120924	0.271839	0.153094	-0.557849	0.764232	1.78516	1.36014	0	0	0.137265	-0.481777	0.753512	1.9081	1.30781	0	0
8.55222	0.0707986	-0.0485855	3.25437	-0.233609	0.924609	0.0388591	0.0658695	-0.0998169	-0.213249	1.15712	-0.159231	0	0	0.485994	0.115223	0.0150414	0.669883	0.258028	0	0	-0.209086	-0.134402	0.236268	0.130424	-0.548608	0.748006	1.75884	1.36511	0	0	0.190852	-0.469044	0.768865	1.90706	1.30374	0	0
8.56221	0.0577369	-0.0573685	3.27258	-0.230788	0.919214	0.0398763	0.0915968	-0.108468	-0.210749	1.22427	-0.137853	0	0	0.473136	0.12582	0.0170308	0.716169	0.293542	0	0	-0.237891	-0.145985	0.200084	0.108315	-0.539667	0.732815	1.73471	1.3698	0	0	0.242629	-0.456187	0.780764	1.90733	1.30167	0	0
